<mxfile host="app.diagrams.net" agent="Mozilla/5.0 (X11; CrOS x86_64 14541.0.0) AppleWebKit/537.36 (KHTML, like Gecko) Chrome/126.0.0.0 Safari/537.36" version="24.7.6">
  <diagram name="Page-1" id="EpBDsD8-0rsXvM9tdPlf">
    <mxGraphModel dx="1473" dy="777" grid="1" gridSize="10" guides="1" tooltips="1" connect="1" arrows="1" fold="1" page="1" pageScale="1" pageWidth="827" pageHeight="1169" math="0" shadow="0">
      <root>
        <mxCell id="0" />
        <mxCell id="1" parent="0" />
        <mxCell id="Hqrry_yrNfmpzNlRQ_lG-7" value="" style="rounded=0;whiteSpace=wrap;html=1;" vertex="1" parent="1">
          <mxGeometry x="600" y="120" width="400" height="640" as="geometry" />
        </mxCell>
        <mxCell id="Hqrry_yrNfmpzNlRQ_lG-8" value="&lt;span style=&quot;font-size: 14px;&quot;&gt;Melihat daftar kehadiran&lt;/span&gt;" style="ellipse;whiteSpace=wrap;html=1;" vertex="1" parent="1">
          <mxGeometry x="680" y="230" width="240" height="90" as="geometry" />
        </mxCell>
        <mxCell id="Hqrry_yrNfmpzNlRQ_lG-9" value="&lt;span style=&quot;font-size: 14px;&quot;&gt;Mengelola Kehadiran&lt;/span&gt;" style="ellipse;whiteSpace=wrap;html=1;" vertex="1" parent="1">
          <mxGeometry x="680" y="360" width="240" height="90" as="geometry" />
        </mxCell>
        <mxCell id="Hqrry_yrNfmpzNlRQ_lG-10" value="&lt;span style=&quot;color: rgb(0, 0, 0); font-family: Helvetica; font-size: 14px; font-style: normal; font-variant-ligatures: normal; font-variant-caps: normal; font-weight: 400; letter-spacing: normal; orphans: 2; text-align: center; text-indent: 0px; text-transform: none; widows: 2; word-spacing: 0px; -webkit-text-stroke-width: 0px; white-space: normal; background-color: rgb(251, 251, 251); text-decoration-thickness: initial; text-decoration-style: initial; text-decoration-color: initial; display: inline !important; float: none;&quot;&gt;Merekap Absen Perminggu&lt;/span&gt;" style="ellipse;whiteSpace=wrap;html=1;" vertex="1" parent="1">
          <mxGeometry x="680" y="490" width="240" height="90" as="geometry" />
        </mxCell>
        <mxCell id="Hqrry_yrNfmpzNlRQ_lG-11" value="Mengecek&amp;nbsp;&lt;font style=&quot;font-size: 14px;&quot;&gt;Kehadiran&lt;/font&gt;&amp;nbsp;Siswa" style="ellipse;whiteSpace=wrap;html=1;" vertex="1" parent="1">
          <mxGeometry x="680" y="610" width="240" height="90" as="geometry" />
        </mxCell>
        <mxCell id="Hqrry_yrNfmpzNlRQ_lG-12" value="Siswa" style="shape=umlActor;verticalLabelPosition=bottom;verticalAlign=top;html=1;outlineConnect=0;" vertex="1" parent="1">
          <mxGeometry x="354" y="120" width="120" height="240" as="geometry" />
        </mxCell>
        <mxCell id="Hqrry_yrNfmpzNlRQ_lG-14" value="Sekretaris" style="shape=umlActor;verticalLabelPosition=bottom;verticalAlign=top;html=1;outlineConnect=0;" vertex="1" parent="1">
          <mxGeometry x="1121" y="115" width="120" height="240" as="geometry" />
        </mxCell>
        <mxCell id="Hqrry_yrNfmpzNlRQ_lG-15" value="Guru" style="shape=umlActor;verticalLabelPosition=bottom;verticalAlign=top;html=1;outlineConnect=0;" vertex="1" parent="1">
          <mxGeometry x="360" y="520" width="120" height="240" as="geometry" />
        </mxCell>
        <mxCell id="Hqrry_yrNfmpzNlRQ_lG-16" value="Guru Piket" style="shape=umlActor;verticalLabelPosition=bottom;verticalAlign=top;html=1;outlineConnect=0;" vertex="1" parent="1">
          <mxGeometry x="1121" y="520" width="120" height="240" as="geometry" />
        </mxCell>
        <mxCell id="Hqrry_yrNfmpzNlRQ_lG-24" value="&lt;font style=&quot;font-size: 24px;&quot;&gt;Use Case&lt;/font&gt;" style="text;html=1;align=center;verticalAlign=middle;whiteSpace=wrap;rounded=0;" vertex="1" parent="1">
          <mxGeometry x="730" y="150" width="140" height="30" as="geometry" />
        </mxCell>
        <mxCell id="Hqrry_yrNfmpzNlRQ_lG-29" value="" style="endArrow=none;html=1;rounded=0;exitX=1.015;exitY=0.619;exitDx=0;exitDy=0;exitPerimeter=0;entryX=0;entryY=0.3333333333333333;entryDx=0;entryDy=0;entryPerimeter=0;" edge="1" parent="1" source="Hqrry_yrNfmpzNlRQ_lG-11" target="Hqrry_yrNfmpzNlRQ_lG-16">
          <mxGeometry width="50" height="50" relative="1" as="geometry">
            <mxPoint x="760" y="500" as="sourcePoint" />
            <mxPoint x="810" y="450" as="targetPoint" />
          </mxGeometry>
        </mxCell>
        <mxCell id="Hqrry_yrNfmpzNlRQ_lG-30" value="" style="endArrow=none;html=1;rounded=0;exitX=1;exitY=0.5;exitDx=0;exitDy=0;entryX=0;entryY=0.3333333333333333;entryDx=0;entryDy=0;entryPerimeter=0;" edge="1" parent="1" source="Hqrry_yrNfmpzNlRQ_lG-10" target="Hqrry_yrNfmpzNlRQ_lG-14">
          <mxGeometry width="50" height="50" relative="1" as="geometry">
            <mxPoint x="930" y="406" as="sourcePoint" />
            <mxPoint x="1127" y="340" as="targetPoint" />
          </mxGeometry>
        </mxCell>
        <mxCell id="Hqrry_yrNfmpzNlRQ_lG-31" value="" style="endArrow=none;html=1;rounded=0;exitX=1;exitY=0.5;exitDx=0;exitDy=0;entryX=0;entryY=0.3333333333333333;entryDx=0;entryDy=0;entryPerimeter=0;" edge="1" parent="1" source="Hqrry_yrNfmpzNlRQ_lG-9" target="Hqrry_yrNfmpzNlRQ_lG-14">
          <mxGeometry width="50" height="50" relative="1" as="geometry">
            <mxPoint x="920" y="430" as="sourcePoint" />
            <mxPoint x="1121" y="90" as="targetPoint" />
          </mxGeometry>
        </mxCell>
        <mxCell id="Hqrry_yrNfmpzNlRQ_lG-32" value="" style="endArrow=none;html=1;rounded=0;exitX=1;exitY=0.3333333333333333;exitDx=0;exitDy=0;exitPerimeter=0;entryX=0;entryY=0.5;entryDx=0;entryDy=0;" edge="1" parent="1" source="Hqrry_yrNfmpzNlRQ_lG-15" target="Hqrry_yrNfmpzNlRQ_lG-10">
          <mxGeometry width="50" height="50" relative="1" as="geometry">
            <mxPoint x="934" y="676" as="sourcePoint" />
            <mxPoint x="1131" y="610" as="targetPoint" />
          </mxGeometry>
        </mxCell>
        <mxCell id="Hqrry_yrNfmpzNlRQ_lG-33" value="" style="endArrow=none;html=1;rounded=0;exitX=1;exitY=0.3333333333333333;exitDx=0;exitDy=0;exitPerimeter=0;entryX=0;entryY=0.5;entryDx=0;entryDy=0;" edge="1" parent="1" source="Hqrry_yrNfmpzNlRQ_lG-15" target="Hqrry_yrNfmpzNlRQ_lG-9">
          <mxGeometry width="50" height="50" relative="1" as="geometry">
            <mxPoint x="480" y="567.5" as="sourcePoint" />
            <mxPoint x="680" y="502.5" as="targetPoint" />
          </mxGeometry>
        </mxCell>
        <mxCell id="Hqrry_yrNfmpzNlRQ_lG-36" value="" style="endArrow=none;html=1;rounded=0;entryX=0;entryY=0.5;entryDx=0;entryDy=0;exitX=1;exitY=0.3333333333333333;exitDx=0;exitDy=0;exitPerimeter=0;" edge="1" parent="1" source="Hqrry_yrNfmpzNlRQ_lG-12" target="Hqrry_yrNfmpzNlRQ_lG-8">
          <mxGeometry width="50" height="50" relative="1" as="geometry">
            <mxPoint x="500" y="620" as="sourcePoint" />
            <mxPoint x="700" y="555" as="targetPoint" />
          </mxGeometry>
        </mxCell>
      </root>
    </mxGraphModel>
  </diagram>
</mxfile>
